<?xml version="1.0" standalone="no"?>
<!DOCTYPE svg PUBLIC "-//W3C//DTD SVG 20010904//EN"
 "http://www.w3.org/TR/2001/REC-SVG-20010904/DTD/svg10.dtd">
<svg version="1.0" xmlns="http://www.w3.org/2000/svg"
 width="300.000000pt" height="300.000000pt" viewBox="0 0 300.000000 300.000000"
 preserveAspectRatio="xMidYMid meet">
<metadata>
Created by potrace 1.11, written by Peter Selinger 2001-2013
</metadata>
<g transform="translate(0.000000,300.000000) scale(0.100000,-0.100000)"
fill="#000000" stroke="none">
<path d="M1320 2989 c-118 -16 -148 -22 -229 -46 -573 -165 -983 -634 -1076
-1232 -19 -121 -13 -367 13 -497 57 -284 208 -579 351 -685 143 -106 342 -179
491 -181 206 -4 320 68 322 201 0 58 -19 97 -68 141 -48 41 -109 69 -260 115
-337 103 -428 146 -514 242 -69 78 -99 150 -106 261 -14 208 86 376 276 469
130 63 210 78 400 78 263 -1 463 -70 706 -242 199 -141 324 -192 501 -200 223
-12 352 79 329 232 -14 93 -90 148 -301 215 -373 119 -434 147 -520 234 -52
52 -92 112 -101 151 -2 6 -7 25 -13 44 -6 19 -9 82 -8 140 2 99 5 111 39 182
42 86 107 156 191 207 54 33 183 82 215 82 10 0 23 4 30 9 18 11 -155 58 -276
75 -104 15 -307 17 -392 5z"/>
<path d="M2054 2605 c-34 -8 -76 -20 -93 -29 -93 -48 -108 -179 -30 -257 54
-54 114 -81 348 -159 235 -77 297 -104 368 -157 132 -99 186 -217 179 -393
-11 -302 -258 -494 -646 -505 -87 -2 -188 6 -250 20 -14 3 -36 8 -49 11 -108
22 -278 104 -427 206 -297 202 -651 268 -789 147 -59 -52 -68 -133 -23 -207
42 -69 124 -107 438 -207 190 -61 271 -103 354 -187 82 -82 110 -140 123 -255
31 -265 -117 -471 -401 -558 l-69 -21 119 -24 c175 -35 385 -37 569 -5 480 83
922 440 1108 896 80 196 108 329 112 544 7 346 -81 635 -279 912 -44 61 -61
76 -121 107 -216 109 -401 150 -541 121z"/>
</g>
</svg>
